<svg width="749" height="174" viewBox="0 0 749 174" fill="none" xmlns="http://www.w3.org/2000/svg">
<mask id="mask0_24_27" style="mask-type:alpha" maskUnits="userSpaceOnUse" x="0" y="0" width="344" height="174">
<path fill-rule="evenodd" clip-rule="evenodd" d="M41 11.4524C41 9.79553 39.6569 8.45238 38 8.45238C36.3431 8.45238 35 9.79553 35 11.4524V20.8333C35 22.4902 36.3431 23.8333 38 23.8333C39.6569 23.8333 41 22.4902 41 20.8333V11.4524ZM41 39.5952C41 37.9384 39.6569 36.5952 38 36.5952C36.3431 36.5952 35 37.9384 35 39.5952V48.9762C35 50.6331 36.3431 51.9762 38 51.9762C39.6569 51.9762 41 50.6331 41 48.9762V39.5952ZM41 67.7381C41 66.0812 39.6569 64.7381 38 64.7381C36.3431 64.7381 35 66.0812 35 67.7381V77.119C35 78.7759 36.3431 80.119 38 80.119C39.6569 80.119 41 78.7759 41 77.119V67.7381ZM41 95.881C41 94.2241 39.6569 92.881 38 92.881C36.3431 92.881 35 94.2241 35 95.881V105.262C35 106.919 36.3431 108.262 38 108.262C39.6569 108.262 41 106.919 41 105.262V95.881ZM41 124.024C41 122.367 39.6569 121.024 38 121.024C36.3431 121.024 35 122.367 35 124.024V133.405C35 135.062 36.3431 136.405 38 136.405C39.6569 136.405 41 135.062 41 133.405V124.024ZM41 152.167C41 150.51 39.6569 149.167 38 149.167C36.3431 149.167 35 150.51 35 152.167V161.548C35 163.204 36.3431 164.548 38 164.548C39.6569 164.548 41 163.204 41 161.548V152.167ZM60 0C26.8629 0 0 26.8629 0 60V114C0 147.137 26.8629 174 60 174H284C317.137 174 344 147.137 344 114V60C344 26.8629 317.137 0 284 0H60Z" fill="url(#paint0_linear_24_27)"/>
</mask>
<g mask="url(#mask0_24_27)">
<rect x="-49" y="-57" width="842" height="301" fill="url(#paint1_linear_24_27)"/>
</g>
<path d="M448.955 40.9091V134H431.955L391.455 75.4091H390.773V134H371.091V40.9091H388.364L428.545 99.4545H429.364V40.9091H448.955ZM465.216 134V40.9091H527.943V57.1364H484.898V79.3182H524.716V95.5455H484.898V117.773H528.125V134H465.216ZM543.591 40.9091H567.864L593.5 103.455H594.591L620.227 40.9091H644.5V134H625.409V73.4091H624.636L600.545 133.545H587.545L563.455 73.1818H562.682V134H543.591V40.9091ZM676.761 134H655.67L687.807 40.9091H713.17L745.261 134H724.17L700.852 62.1818H700.125L676.761 134ZM675.443 97.4091H725.261V112.773H675.443V97.4091Z" fill="url(#paint2_linear_24_27)"/>
<path d="M115.591 67.6818C115.227 64.0151 113.667 61.1667 110.909 59.1364C108.152 57.1061 104.409 56.0909 99.6818 56.0909C96.4697 56.0909 93.7576 56.5455 91.5455 57.4545C89.3333 58.3333 87.6364 59.5606 86.4545 61.1364C85.303 62.7121 84.7273 64.5 84.7273 66.5C84.6667 68.1667 85.0152 69.6212 85.7727 70.8636C86.5606 72.1061 87.6364 73.1818 89 74.0909C90.3636 74.9697 91.9394 75.7424 93.7273 76.4091C95.5152 77.0455 97.4242 77.5909 99.4545 78.0455L107.818 80.0455C111.879 80.9545 115.606 82.1667 119 83.6818C122.394 85.197 125.333 87.0606 127.818 89.2727C130.303 91.4848 132.227 94.0909 133.591 97.0909C134.985 100.091 135.697 103.53 135.727 107.409C135.697 113.106 134.242 118.045 131.364 122.227C128.515 126.379 124.394 129.606 119 131.909C113.636 134.182 107.167 135.318 99.5909 135.318C92.0758 135.318 85.5303 134.167 79.9545 131.864C74.4091 129.561 70.0758 126.152 66.9545 121.636C63.8636 117.091 62.2424 111.47 62.0909 104.773H81.1364C81.3485 107.894 82.2424 110.5 83.8182 112.591C85.4242 114.652 87.5606 116.212 90.2273 117.273C92.9242 118.303 95.9697 118.818 99.3636 118.818C102.697 118.818 105.591 118.333 108.045 117.364C110.53 116.394 112.455 115.045 113.818 113.318C115.182 111.591 115.864 109.606 115.864 107.364C115.864 105.273 115.242 103.515 114 102.091C112.788 100.667 111 99.4545 108.636 98.4545C106.303 97.4545 103.439 96.5455 100.045 95.7273L89.9091 93.1818C82.0606 91.2727 75.8636 88.2879 71.3182 84.2273C66.7727 80.1667 64.5152 74.697 64.5455 67.8182C64.5152 62.1818 66.0152 57.2576 69.0455 53.0455C72.1061 48.8333 76.303 45.5455 81.6364 43.1818C86.9697 40.8182 93.0303 39.6364 99.8182 39.6364C106.727 39.6364 112.758 40.8182 117.909 43.1818C123.091 45.5455 127.121 48.8333 130 53.0455C132.879 57.2576 134.364 62.1364 134.455 67.6818H115.591ZM148.966 134V40.9091H211.693V57.1364H168.648V79.3182H208.466V95.5455H168.648V117.773H211.875V134H148.966ZM243.386 134H222.295L254.432 40.9091H279.795L311.886 134H290.795L267.477 62.1818H266.75L243.386 134ZM242.068 97.4091H291.886V112.773H242.068V97.4091Z" fill="white"/>
<defs>
<linearGradient id="paint0_linear_24_27" x1="294.5" y1="60" x2="372" y2="198.5" gradientUnits="userSpaceOnUse">
<stop stop-color="#FFB43B"/>
<stop offset="1" stop-color="#906B33"/>
</linearGradient>
<linearGradient id="paint1_linear_24_27" x1="356" y1="-89.5" x2="597" y2="285" gradientUnits="userSpaceOnUse">
<stop stop-color="#FFB43B"/>
<stop offset="1" stop-color="#906B33"/>
</linearGradient>
<linearGradient id="paint2_linear_24_27" x1="545" y1="48" x2="594.488" y2="192.979" gradientUnits="userSpaceOnUse">
<stop stop-color="#FFB43B"/>
<stop offset="1" stop-color="#906B33"/>
</linearGradient>
</defs>
</svg>
